<svg width="190" height="78" viewBox="0 0 190 78" fill="currentColor" preserveAspectRatio="none" xmlns="http://www.w3.org/2000/svg">
<path d="M46.256 64.5061C43.4308 63.3824 42.3684 62.2955 42.3684 60.6267C42.3684 58.8642 43.5883 57.8074 45.5153 57.8074C47.1542 57.8074 48.5014 58.5432 49.7548 60.212L51.9399 58.3191C50.2374 56.1085 48.116 55.0183 45.5488 55.0183C41.9193 55.0183 39.3823 57.4228 39.3823 60.8541C39.3823 63.6734 41.0513 65.6298 45.0361 67.2652C47.9585 68.419 49.0846 69.6062 49.0846 71.3051C49.0846 73.2616 47.6066 74.4455 45.3277 74.4455C43.2733 74.4455 41.6344 73.4823 40.2537 71.3051L38.0049 73.1646C39.6437 75.8267 42.2444 77.2346 45.2975 77.2346C49.2823 77.2346 52.074 74.703 52.074 71.0811C52.074 68.1648 50.2743 66.1448 46.2593 64.5095L46.256 64.5061Z" fill="currentColor"/>
<path d="M59.2326 67.1649H65.6572V64.379H59.2326V58.1586H67.7149V55.3694H56.2465V76.8467H67.8724V74.0575H59.2326V67.1649Z" fill="currentColor"/>
<path d="M78.989 54.7942L70.6038 76.85H73.7843L75.584 71.9439H83.5502L85.3499 76.85H88.5303L80.115 54.7942H78.989ZM76.6128 69.1547L79.5687 61.0782L82.5247 69.1547H76.6128Z" fill="currentColor"/>
<path d="M91.2249 58.1586H102.566L90.7758 75.7564V76.8467H107.221V74.0575H95.5314L107.288 56.4597V55.3694H91.2249V58.1586Z" fill="currentColor"/>
<path d="M119.172 55.0183C113.099 55.0183 108.25 59.9545 108.25 66.108C108.25 72.2616 113.099 77.2012 119.172 77.2012C125.245 77.2012 130.031 72.265 130.031 66.108C130.031 59.9511 125.211 55.0183 119.172 55.0183ZM119.139 74.2849C114.674 74.2849 111.43 70.7901 111.43 66.1114C111.43 61.4327 114.674 57.9379 119.139 57.9379C123.603 57.9379 126.847 61.4327 126.847 66.1114C126.847 70.7901 123.539 74.2849 119.139 74.2849Z" fill="currentColor"/>
<path d="M149.013 55.3694V70.7232L135.296 54.7942H134.203V76.8467H137.192V61.4929L150.906 77.4253H151.999V55.3694H149.013Z" fill="currentColor"/>
<path d="M12.7252 7.74212H0V44.2588H12.7252C23.8652 44.2588 32.0593 36.4666 32.0593 26.0022C32.0593 15.5377 23.8116 7.74546 12.7252 7.74546V7.74212ZM12.7252 39.5166H5.0807V12.4844H12.7252C20.8087 12.4844 26.6536 18.153 26.6536 26.0022C26.6536 33.8513 20.8087 39.5199 12.7252 39.5199V39.5166Z" fill="currentColor"/>
<path d="M44.2383 27.8014H55.1604V23.0591H44.2383V12.4844H58.6559V7.74212H39.1576V44.2588H58.9274V39.5166H44.2383V27.8014Z" fill="currentColor"/>
<path d="M84.5956 28.6709L68.7034 6.76223H66.8467V44.2588H71.9274V19.5175L83.7243 35.6472H85.4703L97.3208 19.5175V44.2588H102.402V6.76223H100.545L84.5956 28.6709Z" fill="currentColor"/>
<path d="M184.919 7.74212V33.8479L161.6 6.76223H159.744V44.2588H164.821V18.153L188.143 45.2387H190V7.74212H184.919Z" fill="currentColor"/>
<path d="M144.978 12.3539C149.73 5.17033 145.859 0 145.859 0C146.576 5.23722 142.286 9.14339 141.73 9.62832C141.335 9.36078 140.929 9.10661 140.513 8.86581C137.41 7.0766 133.888 6.13684 130.302 6.13684C126.2 6.13684 122.225 7.3709 118.874 9.62832C118.317 9.14339 114.031 5.23722 114.745 0C114.745 0 110.874 5.17033 115.626 12.3506C111.946 16.1464 109.882 21.2231 109.882 26.5138C109.882 31.8046 112.033 37.102 115.864 40.9245C119.695 44.7471 124.889 46.8942 130.305 46.8942C135.721 46.8942 140.916 44.7471 144.746 40.9245C148.577 37.102 150.728 31.9183 150.728 26.5138C150.728 22.9354 149.783 19.4239 147.994 16.3237C147.156 14.8756 146.137 13.5445 144.984 12.3539H144.978ZM130.282 10.2403C133.559 10.2403 136.76 11.2236 139.471 13.0629H139.511C136.683 16.2501 134.927 20.2399 134.488 24.4771H126.216C125.747 20.2298 123.954 16.2401 121.089 13.0629C123.8 11.2236 127.001 10.2403 130.278 10.2403H130.282ZM118.049 15.7752C120.214 18.2132 121.588 21.2465 121.99 24.4771H114.108C114.523 21.2499 115.894 18.2166 118.049 15.7752ZM114.108 28.5539H121.99C121.588 31.7845 120.214 34.8178 118.049 37.2558C115.894 34.8145 114.52 31.7811 114.108 28.5539ZM130.426 42.7907C127.148 42.7907 123.944 41.8075 121.236 39.9681H121.092C123.958 36.7943 125.751 32.8012 126.22 28.5539H134.592C135.031 32.7878 136.787 36.7809 139.615 39.9681C136.904 41.8075 133.703 42.7907 130.426 42.7907ZM142.558 37.2558C140.393 34.8178 139.019 31.7845 138.617 28.5539H146.499C146.083 31.7811 144.713 34.8145 142.558 37.2558ZM138.617 24.4771C139.019 21.2465 140.393 18.2132 142.558 15.7752C144.713 18.2166 146.087 21.2499 146.499 24.4771H138.617Z" fill="currentColor"/>
</svg>
